<svg width="512" height="512" viewBox="0 0 512 512" fill="none" xmlns="http://www.w3.org/2000/svg">
  <rect width="512" height="512" rx="256" fill="#1DB954"/>
  <path d="M128 128C128 115.2 138.2 105 151 105H361C373.8 105 384 115.2 384 128V384C384 396.8 373.8 407 361 407H151C138.2 407 128 396.8 128 384V128Z" fill="white"/>
  <circle cx="200" cy="256" r="40" fill="#1DB954"/>
  <circle cx="312" cy="256" r="40" fill="#1DB954"/>
  <path d="M200 216C200 203.2 210.2 193 223 193H289C301.8 193 312 203.2 312 216V296C312 308.8 301.8 319 289 319H223C210.2 319 200 308.8 200 296V216Z" fill="white"/>
</svg> 